<svg version="1.1" id="Layer_1" xmlns:x="ns_extend;" xmlns:i="ns_ai;" xmlns:graph="ns_graphs;" xmlns="http://www.w3.org/2000/svg" xmlns:xlink="http://www.w3.org/1999/xlink" x="0px" y="0px" viewBox="0 0 395.4 85" style="enable-background:new 0 0 395.4 85;" xml:space="preserve">
 <style type="text/css">
  .st0{fill:#FFFFFF;}
	.st1{fill-rule:evenodd;clip-rule:evenodd;fill:#FFFFFF;}
 </style>
 <metadata>
  <sfw xmlns="ns_sfw;">
   <slices>
   </slices>
   <sliceSourceBounds bottomLeftOrigin="true" height="85" width="395.4" x="-302.4" y="0">
   </sliceSourceBounds>
  </sfw>
 </metadata>
 <g>
  <path class="st0" d="M117,0c-10.6,0-16.6,6-16.6,15.9l0,0c0,9.6,6,15.8,16.4,15.8c9.6,0,15.1-4.9,16.1-12.7h-7.2
		c-0.7,4.4-3.4,7.1-8.8,7.1c-5.9,0-9.5-3.5-9.5-10.3s3.2-10.3,9.5-10.3c5.2,0,7.9,2.6,8.6,7.1h7.2C131.7,5.1,126.8,0,117,0z">
  </path>
  <path class="st1" d="M151.3,31.8c10.1,0,16.3-6.2,16.3-16c0-10.2-6.8-15.8-16.3-15.8C141.2,0,135,5.7,135,16
		C135,26.2,141.8,31.8,151.3,31.8z M151.3,5.6c5.6,0,9.3,3.3,9.3,10.4c0,6.9-3.4,10.2-9.3,10.2c-5.6,0-9.3-3.5-9.3-10.4
		C142,8.8,145.5,5.6,151.3,5.6z">
  </path>
  <path class="st0" d="M178.4,0.5h-6.9v30.7h6.9V10.4c1.8-3.5,4.3-5.1,8.3-5.1c5,0,7.5,2.3,7.5,7.2v18.7h6.9V11.6
		C201,4.2,197,0,189.9,0c-6.3,0-9.8,3.3-11.5,8.7V0.5z">
  </path>
  <path class="st0" d="M211.2,21.8h-7.2l0,0c0.8,6.2,5.4,9.9,15.3,9.9c9.9,0,14.1-4.1,14.1-9.6c0-4.7-2.2-7.9-8.9-8.6l-9.2-1.1
		c-2.7-0.3-3.7-1.4-3.7-3.2c0-2.2,1.7-3.8,6.9-3.8c5.3,0,7.1,1.8,7.5,4.4h7.2C232.1,4,228.4,0,218.6,0c-9.8,0-13.8,4.2-13.8,9.7
		c0,4.8,2.5,7.7,9.3,8.5l8.9,1c2.9,0.4,3.7,1.6,3.7,3.3c0,2.2-2,3.9-7.3,3.9S211.7,24.9,211.2,21.8z">
  </path>
  <path class="st1" d="M236,16c0,9,5.6,15.8,16,15.8c8.7,0,14.1-4.1,15.7-10.4h-7.1c-1,3.1-3.7,4.9-8.4,4.9c-5.2,0-8.6-3.1-9.2-8.5
		h24.8C267.9,6.9,263.2,0,252,0C242,0,236,6.5,236,16z M260.6,12.9h-17.5c0.9-4.9,4.1-7.5,8.9-7.5C257.5,5.4,260.1,8.4,260.6,12.9z">
  </path>
  <path class="st0" d="M278.2,0.5h-6.9v30.7h6.9V10.4c1.8-3.5,4.3-5.1,8.3-5.1c5,0,7.5,2.3,7.5,7.2v18.7h6.9V11.6
		c0-7.3-4-11.6-11.2-11.6c-6.3,0-9.8,3.3-11.5,8.7V0.5z">
  </path>
  <path class="st0" d="M311,21.8h-7.2l0,0c0.8,6.2,5.4,9.9,15.3,9.9c9.9,0,14.1-4.1,14.1-9.6c0-4.7-2.2-7.9-8.9-8.6l-9.2-1.1
		c-2.7-0.3-3.7-1.4-3.7-3.2c0-2.2,1.7-3.8,6.9-3.8c5.3,0,7.1,1.8,7.5,4.4h7.2C331.9,4,328.2,0,318.4,0c-9.8,0-13.8,4.2-13.8,9.7
		c0,4.8,2.5,7.7,9.3,8.5l8.9,1c2.9,0.4,3.7,1.6,3.7,3.3c0,2.2-2,3.9-7.3,3.9C313.9,26.3,311.5,24.9,311,21.8z">
  </path>
  <path class="st0" d="M353.3,38.8l12.9-38.3h-7.2L350,27.4l-9.2-26.9h-7.6l10.1,27.4h6.7l-1.7,5.2h-11.7v5.7H353.3z">
  </path>
  <path class="st0" d="M373.3,21.8H366l0,0c0.8,6.2,5.4,9.9,15.3,9.9c9.9,0,14.1-4.1,14.1-9.6c0-4.7-2.2-7.9-8.9-8.6l-9.2-1.1
		c-2.7-0.3-3.7-1.4-3.7-3.2c0-2.2,1.7-3.8,6.9-3.8s7.1,1.8,7.5,4.4h7.2C394.2,4,390.5,0,380.7,0s-13.8,4.2-13.8,9.7
		c0,4.8,2.5,7.7,9.3,8.5l8.9,1c2.9,0.4,3.7,1.6,3.7,3.3c0,2.2-2,3.9-7.3,3.9C376.2,26.3,373.8,24.9,373.3,21.8z">
  </path>
  <path class="st1" d="M84.4,42.8V31.2h0l0,0V0.5H53.7H42.2C18.9,0.5,0,19.4,0,42.8C0,66.1,18.9,85,42.2,85
		C65.5,85,84.4,66.1,84.4,42.8z M32.6,21.6L53.7,0.5v30.7h30.7L63.3,52.4H32.6V21.6z">
  </path>
 </g>
</svg>