<svg version="1.1" id="Layer_1" xmlns:x="ns_extend;" xmlns:i="ns_ai;" xmlns:graph="ns_graphs;" xmlns="http://www.w3.org/2000/svg" xmlns:xlink="http://www.w3.org/1999/xlink" x="0px" y="0px" viewBox="0 0 331 50" style="enable-background:new 0 0 331 50;" xml:space="preserve">
 <style type="text/css">
  .st0{fill:#FFFFFF;}
 </style>
 <metadata>
  <sfw xmlns="ns_sfw;">
   <slices>
   </slices>
   <sliceSourceBounds bottomLeftOrigin="true" height="50" width="331" x="-48.2" y="-212.3">
   </sliceSourceBounds>
  </sfw>
 </metadata>
 <g>
  <g transform="translate(36.576271, 2.777778)">
   <path class="st0" d="M142.4,6.7v11h0.1c1.8-2.4,4.4-3.6,7.8-3.6c1.5,0,2.9,0.2,4.3,0.7c1.3,0.5,2.5,1.2,3.6,2.2
			c1,1,1.9,2.2,2.5,3.7c0.6,1.5,0.9,3.2,0.9,5.2c0,2.2-0.4,4.2-1.2,6.1c-0.8,1.9-2.1,3.4-3.8,4.5c-1.7,1.1-3.8,1.7-6.4,1.7
			c-3.7,0-6.3-1.2-7.8-3.5h-0.1v2.9h-7v-31H142.4z M115.7,13.5C129.2,13.5,128,28,128,28l0,0h-18.5c0.7,2.9,3.2,4.8,6.7,4.8
			c4.1,0,6.4-2.5,6.4-2.5l0,0l3.9,4c-2,2-4.7,3.8-10.3,3.8c-8.7,0-13.3-5.7-13.3-11.8S106.3,13.5,115.7,13.5z M283.9,13.5
			c5.8,0,9.5,2.2,9.5,2.2l0,0l-2.4,5.1c-7.7-4-11.2-1.2-11.2,0.2c0,1.4,1.4,1.5,6.8,2.5c5.4,1,7.9,3.2,7.9,6.9
			c0,3.6-3.1,7.6-10.7,7.6c-7.6,0-11.1-2.4-11.1-2.4l0,0l2.3-5.1c6,3.8,12.7,2.6,12.7,0.3c0-1.7-2.3-2-4.7-2.3l-1-0.1
			c-0.5-0.1-0.9-0.1-1.4-0.2c-3.1-0.5-7.7-2.1-7.7-6.9C273,16.6,278.1,13.5,283.9,13.5z M249.9,5.1v18.7l10.1-9.7h8.3l-10,9.6
			l11,14.3H261l-7.5-9.8l-3.6,3.5v6.3h-6.8v-33H249.9z M225.7,13.3c4.8,0,9,2.4,11.3,6l0,0l-5.7,3.4c-1.1-2-3.2-3.4-5.6-3.4
			c-3.5,0-6.4,2.9-6.4,6.5c0,3.6,2.8,6.5,6.4,6.5c2.3,0,4.3-1.3,5.4-3.1l0,0l5.7,3.3c-2.3,3.5-6.5,5.8-11.2,5.8
			c-7.3,0-13.2-5.5-13.2-12.4C212.5,18.9,218.4,13.3,225.7,13.3z M194.3,13.3c7.3,0,13.2,5.5,13.2,12.4c0,6.8-5.9,12.4-13.2,12.4
			c-7.3,0-13.2-5.5-13.2-12.4C181.1,18.9,187,13.3,194.3,13.3z M74.2,14v23.8h-7.3V14H74.2z M60.3,6.8v6H43.9v7.9h14.5v5.9H43.9
			v11.3h-7.3v-31H60.3z M89.9,17c0,0,2.6-4.1,8-3.4l0,0v6.6c0,0-5.8-1.5-8,4.5l0,0v13.1h-7V14h6.7l0.3,2.8V17z M174.1,5v32.7h-7.4V5
			H174.1z M148.2,19.4c-4.1,0-6.1,2.5-6.1,7.4c0,1.9,0.5,3.4,1.6,4.7c1,1.3,2.6,1.9,4.7,1.9c1.4,0,2.5-0.4,3.4-1.1
			c0.9-0.7,1.5-1.6,1.9-2.7c0.4-1.1,0.6-2.1,0.6-3.2c0-2-0.5-3.7-1.4-5C151.8,20,150.3,19.4,148.2,19.4z M194.3,19.2
			c-3.5,0-6.4,2.9-6.4,6.5c0,3.6,2.8,6.5,6.4,6.5c3.5,0,6.3-2.9,6.3-6.5C200.6,22.1,197.8,19.2,194.3,19.2z M115.8,18.7
			c-3.6,0-5.6,2.2-6.2,5.1l0,0h12C121.5,23,120.3,18.7,115.8,18.7z M70.6,2.8c2.4,0,4.3,1.8,4.3,4s-1.9,4-4.3,4
			c-2.4,0-4.3-1.8-4.3-4S68.2,2.8,70.6,2.8z">
   </path>
  </g>
  <g>
   <path class="st0" d="M48.6,0c1.1,0,2,0.9,2,2l0,0v46c0,1.1-0.9,2-2,2l0,0H2c-1.1,0-2-0.9-2-2l0,0V2c0-1.1,0.9-2,2-2l0,0H48.6z
			 M25.3,13.9L11.3,36.1h28.1L25.3,13.9z">
   </path>
  </g>
 </g>
</svg>