<svg xmlns="http://www.w3.org/2000/svg" xmlns:xlink="http://www.w3.org/1999/xlink" viewBox="0 0 553.38 78.93"><defs><style>.cls-1{fill:#fff;}</style><symbol id="White_MQ_Logo" data-name="White MQ Logo" viewBox="0 0 553.38 78.93"><path id="path-1" class="cls-1" d="M195.73,69V28.58L184.24,54.49h-6.66L166.09,28.67V69H156V9.88h11.59l13.51,29.18L194.38,9.88h11.49V69Zm50.33-45.8L238,46.58h16Zm16,45.8-4.38-12.56H235.09L230.72,69H219.58L240.37,9.88H252.5L273.19,69Zm54.31-45.38s0-.59-.1-.69c-.58-1.09-2.13-3.07-3.09-3.17h-17.5V35.64h17c.87,0,2.81-2,3.58-3.37a1,1,0,0,0,.1-.39ZM318.27,69,305.32,45.55H296V69H285.89V9.88h27.16a12.56,12.56,0,0,1,7,2.18,33.67,33.67,0,0,1,5.12,5.45,11.22,11.22,0,0,1,1.74,6v8.52a11,11,0,0,1-1.74,6A32.51,32.51,0,0,1,320,43.37a9.91,9.91,0,0,1-3.58,1.49L330.26,69ZM353,54.82a.79.79,0,0,0,.09.39,17.57,17.57,0,0,0,4.3,4.54,1.05,1.05,0,0,0,.49.1h2.25l-1.46-3.45L368,53.24l2.82,6.61h1.27a1.3,1.3,0,0,0,.49-.1,17.15,17.15,0,0,0,4.1-4.54.94.94,0,0,0,.1-.39V24.37s0-.3-.1-.4a14.85,14.85,0,0,0-4.1-4.14,1.05,1.05,0,0,0-.49-.1H357.86s-.39,0-.49.1a15.3,15.3,0,0,0-4.3,4.14,1.09,1.09,0,0,0-.09.4ZM374.57,69.7l3.81,8.58H367.54l-3.62-8.58h-6.45a12.24,12.24,0,0,1-6.06-1.77c-2.05-1.19-6-5.42-7.13-7.1a10,10,0,0,1-1.56-5.62V24.37a10,10,0,0,1,1.56-5.62c1.17-1.68,5.08-5.91,7.13-7.1a12.24,12.24,0,0,1,6.06-1.77h14.86a12.48,12.48,0,0,1,6.05,1.77c2.06,1.19,5.87,5.42,7.14,7.1a10,10,0,0,1,1.56,5.62V55.21a10,10,0,0,1-1.56,5.62c-1.27,1.68-5.08,5.91-7.14,7.1a10.67,10.67,0,0,1-3.9,1.57ZM404.43,69V9.88h37.33v9.89H414.24V34.71h26V44.6h-26V59.14h27.52V69Zm77.89-49.26V69H471.91V19.77H455.85V9.88h42.52v9.89Zm44.31,3.46-8.06,23.35h16ZM542.24,69l-4.37-12.56H515.29L510.91,69H499.77L520.56,9.88H532.7L553.38,69Z"/><polygon class="cls-1" points="0 0 45.15 0 71.97 39.47 51.87 69.07 66.84 69.07 87.03 39.47 60.19 0 105.27 0 132.17 39.47 105.27 78.93 90.3 78.93 117.12 39.47 97.04 9.87 81.99 9.87 102.08 39.47 75.25 78.93 30.1 78.93 56.93 39.47 36.74 9.87 21.69 9.87 41.96 39.47 15.05 78.93 0 78.93 26.91 39.47 0 0"/></symbol></defs><title>primary-logo-white</title><g id="Layer_2" data-name="Layer 2"><g id="Layer_1-2" data-name="Layer 1"><use width="553.38" height="78.93" xlink:href="#White_MQ_Logo"/></g></g></svg>