<svg xmlns="http://www.w3.org/2000/svg" width="630" height="120" fill="none"><path fill="#fff" d="M111.095 58.92 58.92 111.095a5.225 5.225 0 0 0 7.38 7.38L118.475 66.3a5.224 5.224 0 0 0-3.744-8.729 5.23 5.23 0 0 0-3.636 1.349M100.66 1.525 1.525 100.66a5.225 5.225 0 0 0 7.38 7.38L108.04 8.905a5.224 5.224 0 0 0-3.744-8.729 5.23 5.23 0 0 0-3.636 1.349M196.712 95.164q-7.76 0-13.289-2.231-5.529-2.232-8.439-6.111-2.813-3.977-3.201-9.215l14.744-.485q.679 3.783 3.104 5.82 2.522 1.94 7.178 1.94 3.977 0 6.111-1.261 2.134-1.358 2.134-3.88 0-1.746-.873-2.813-.776-1.068-3.104-1.843-2.23-.873-6.596-1.552-8.245-1.359-12.901-3.298-4.656-2.038-6.596-5.044-1.94-3.105-1.94-7.663 0-7.663 5.917-12.125 5.918-4.56 17.169-4.56 10.573 0 16.49 4.85 6.013 4.851 6.984 12.999l-14.55.582q-.484-3.783-2.91-5.917-2.328-2.23-6.208-2.231-3.783 0-5.917 1.649-2.037 1.552-2.037 4.17 0 1.94.873 3.202.97 1.163 3.007 1.94 2.135.776 5.82 1.26 8.342 1.262 13.192 3.299 4.85 1.94 6.984 5.044 2.134 3.105 2.134 7.76 0 7.47-6.305 11.64-6.208 4.074-16.975 4.074M227.025 25.13h14.55v29.003h-1.94q.97-6.499 5.432-9.894t10.864-3.395q8.439 0 12.998 5.432 4.559 5.336 4.559 14.259V94h-14.55V64.027q0-5.918-1.843-8.73-1.844-2.91-6.014-2.91-4.56 0-7.081 3.104-2.425 3.104-2.425 8.924V94h-14.55zM298.769 95.164q-8.245 0-13.289-3.783-4.947-3.783-4.947-10.38 0-6.789 4.171-10.572t12.901-5.53l16.781-3.297q0-5.044-2.328-7.566-2.23-2.62-6.596-2.62-4.074.001-6.402 1.94-2.328 1.844-3.104 5.53l-14.55-.68q1.455-8.535 7.663-12.9 6.208-4.462 16.393-4.462 11.64 0 17.557 5.529 5.917 5.53 5.917 16.199v17.75q0 2.136.679 2.91.679.777 2.231.777h1.455v9.99q-.776.195-2.328.389-1.455.195-2.91.194-5.335 0-8.536-2.716-3.104-2.716-3.104-9.312l1.261.97q-1.455 5.335-6.402 8.536-4.947 3.105-12.513 3.104m3.492-9.991q3.589 0 6.305-1.358 2.813-1.455 4.268-4.171 1.552-2.716 1.552-6.402V70.72l-11.834 2.522q-3.59.679-5.335 2.328-1.746 1.552-1.746 4.074 0 2.715 1.649 4.17 1.746 1.359 5.141 1.359M358.377 95.164q-6.402 0-11.252-3.298-4.85-3.395-7.469-9.506-2.522-6.111-2.522-14.356t2.619-14.356 7.372-9.41q4.85-3.394 11.252-3.394 5.53 0 9.506 2.328 4.074 2.231 6.208 6.208V25.13h14.55V94h-13.968l-.291-7.663q-2.135 4.17-6.402 6.499-4.172 2.328-9.603 2.328m4.85-11.155q3.492 0 5.917-1.843t3.686-5.335q1.261-3.59 1.261-8.827 0-5.239-1.261-8.827-1.261-3.59-3.686-5.335-2.425-1.843-5.917-1.843-5.14 0-8.148 4.365-3.007 4.267-3.007 11.64 0 7.275 3.007 11.64 3.103 4.365 8.148 4.365M422.866 95.164q-7.857 0-13.871-3.298-6.014-3.395-9.312-9.506-3.201-6.208-3.201-14.356t3.201-14.26q3.298-6.207 9.312-9.505 6.014-3.395 13.871-3.395 6.887 0 12.319 2.425 5.53 2.425 8.924 7.08 3.395 4.56 4.171 10.865l-15.035.679q-.679-4.753-3.395-7.275t-6.984-2.522q-5.431 0-8.439 4.17-3.007 4.172-3.007 11.738 0 7.662 3.007 11.834 3.008 4.17 8.439 4.17 4.268 0 6.984-2.618 2.813-2.62 3.395-7.76l15.035.582q-.776 6.305-4.171 11.058-3.298 4.753-8.827 7.372-5.432 2.522-12.416 2.522M454.66 42.008h13.095l.582 15.229-1.843-.485q1.067-8.245 5.529-12.028 4.559-3.88 11.446-3.88 8.342 0 12.998 5.335 4.656 5.238 4.656 14.356V94h-14.55V65.385q0-6.596-1.746-9.797t-6.208-3.201q-4.558 0-6.984 3.395-2.425 3.298-2.425 9.603V94h-14.55zM537.433 21.25h14.356l-28.712 83.42h-14.356zM575.177 95.164q-8.05 0-12.61-5.141-4.462-5.14-4.462-14.55V42.008h14.55v30.07q0 6.014 1.843 8.827 1.843 2.716 5.82 2.716 4.463 0 6.887-3.104 2.523-3.105 2.522-9.118V42.008h14.55V94h-13.289l-.388-14.938 1.843.388q-1.164 7.76-5.529 11.737t-11.737 3.977M614.327 42.008h14.55V94h-14.55zm-.291-18.042h15.035v11.64h-15.035z"/></svg>