<svg width="144" height="48" viewBox="0 0 144 48" fill="none" xmlns="http://www.w3.org/2000/svg">
<g id="ultrayield logo">
<path id="Vector" d="M40.5938 27.796V18.6562H43.6355V27.0502C43.6355 27.7034 43.7963 28.298 44.1181 28.8342C44.4397 29.3704 44.8687 29.7994 45.4049 30.1211C45.9411 30.4331 46.5309 30.5891 47.1744 30.5891C47.8275 30.5891 48.4174 30.4331 48.9438 30.1211C49.48 29.7994 49.9041 29.3704 50.2161 28.8342C50.5377 28.298 50.6986 27.7034 50.6986 27.0502V18.6562H53.7404L53.755 33.2798H50.7132L50.6986 31.7004C50.2014 32.3049 49.5824 32.7825 48.8414 33.1335C48.1005 33.4845 47.3059 33.66 46.4578 33.66C45.3757 33.66 44.391 33.3967 43.5039 32.8703C42.6167 32.3438 41.9099 31.637 41.3834 30.7499C40.857 29.8627 40.5938 28.8781 40.5938 27.796Z" fill="black"/>
<path id="Vector_2" d="M55.9219 33.279V11.3438H58.9632V33.279H55.9219Z" fill="black"/>
<path id="Vector_3" d="M69.2812 21.696H66.2108L66.1957 33.2778H63.1544L63.169 21.696H60.8438V18.6543H63.169L63.1544 14.0625H66.1957L66.2108 18.6543H69.2812V21.696Z" fill="black"/>
<path id="Vector_4" d="M71.0625 33.2674V18.6439H74.1043V20.1939C74.6108 19.5895 75.2351 19.1118 75.976 18.7608C76.7168 18.4099 77.516 18.2344 78.3741 18.2344C78.92 18.2344 79.4611 18.3075 79.9973 18.4537L78.7834 21.5247C78.4033 21.3785 78.0231 21.3054 77.6429 21.3054C76.9998 21.3054 76.4096 21.4662 75.8734 21.7879C75.3371 22.0999 74.9084 22.524 74.5865 23.0601C74.2652 23.5964 74.1043 24.1911 74.1043 24.8442V33.2674H71.0625Z" fill="black"/>
<path id="Vector_5" d="M91.473 18.6439H94.5148V33.2674H91.4584L91.3412 31.147C90.9124 31.8976 90.3325 32.5021 89.6013 32.9603C88.8702 33.4185 88.0072 33.6476 87.0131 33.6476C85.9407 33.6476 84.9314 33.4477 83.9859 33.048C83.0403 32.6385 82.2066 32.0731 81.4851 31.3517C80.7734 30.6302 80.2177 29.8016 79.8181 28.8657C79.4185 27.92 79.2188 26.9061 79.2188 25.824C79.2188 24.7808 79.4137 23.8011 79.8036 22.8847C80.1934 21.9585 80.7345 21.1493 81.4268 20.4572C82.1191 19.765 82.9183 19.2239 83.8249 18.8339C84.7413 18.4342 85.7209 18.2344 86.7642 18.2344C87.8269 18.2344 88.7627 18.4781 89.5722 18.9656C90.3908 19.4433 91.0685 20.0575 91.6047 20.8081L91.473 18.6439ZM86.9397 30.7083C87.7977 30.7083 88.5483 30.4986 89.192 30.0794C89.8351 29.6505 90.3325 29.0753 90.6835 28.3539C91.0442 27.6324 91.2246 26.833 91.2246 25.9556C91.2246 25.0685 91.0442 24.2642 90.6835 23.5427C90.3228 22.8213 89.8206 22.251 89.1769 21.8318C88.5435 21.4028 87.7977 21.1883 86.9397 21.1883C86.0913 21.1883 85.3164 21.4028 84.6144 21.8318C83.9124 22.2607 83.3568 22.8359 82.9474 23.5574C82.5381 24.2788 82.3335 25.0782 82.3335 25.9556C82.3335 26.8428 82.543 27.6471 82.962 28.3685C83.3913 29.0802 83.9518 29.6505 84.6436 30.0794C85.3456 30.4986 86.1113 30.7083 86.9397 30.7083Z" fill="black"/>
<g id="Mask group">
<mask id="mask0_13483_12845" style="mask-type:alpha" maskUnits="userSpaceOnUse" x="2" y="5" width="39" height="38">
<g id="Group">
<path id="Vector_6" d="M2.85938 20.2848C2.85938 15.0221 2.85938 12.3908 3.88354 10.3807C4.78447 8.61258 6.22195 7.1751 7.99008 6.27416C10.0002 5.25 12.6315 5.25 17.8942 5.25H25.442C30.7047 5.25 33.336 5.25 35.3461 6.27416C37.1142 7.1751 38.5518 8.61258 39.4526 10.3807C40.4768 12.3908 40.4768 15.0221 40.4768 20.2848V27.8326C40.4768 33.0953 40.4768 35.7266 39.4526 37.7367C38.5518 39.5048 37.1142 40.9424 35.3461 41.8433C33.336 42.8674 30.7047 42.8674 25.442 42.8674H17.8942C12.6315 42.8674 10.0002 42.8674 7.99008 41.8433C6.22195 40.9424 4.78447 39.5048 3.88354 37.7367C2.85938 35.7266 2.85938 33.0953 2.85938 27.8326V20.2848Z" fill="url(#paint0_linear_13483_12845)"/>
</g>
</mask>
<g mask="url(#mask0_13483_12845)">
<g id="Group_2">
<path id="Vector_7" d="M32.6344 18.1406L27.2182 20.6362L27.034 35.341C27.034 36.201 26.3585 37.4783 25.7812 37.7215C30.7627 37.7215 32.4625 33.5365 32.6344 31.4248V18.1406Z" fill="black"/>
<path id="Vector_8" d="M27.2399 15.75L32.6561 18.1688L27.2399 20.6644L21.75 18.1688L27.2399 15.75Z" fill="black"/>
<path id="Vector_9" d="M21.7252 13.125L16.6406 15.5947V28.855C16.6406 30.4508 17.367 32.5405 19.9958 32.5405C21.068 32.5405 21.7252 32.0846 21.7252 31.4007C21.7252 30.7168 21.7252 26.2714 21.7252 26.2714V13.125Z" fill="black"/>
<path id="Vector_10" d="M16.6352 10.7344L21.7169 13.1301L16.6352 15.6018L11.4844 13.1301L16.6352 10.7344Z" fill="black"/>
<path id="Vector_11" fill-rule="evenodd" clip-rule="evenodd" d="M12.2149 11.3227L11.5145 4.45312L10.8141 11.3227L7.43496 8.93192L9.82355 12.314L1.45312 13.015L9.82355 13.7159L8.21672 16.316L10.8141 14.7073L11.5047 26.1485V13.1476L13.4737 14.0916L13.2055 13.7159L19.1407 13.015L13.2055 12.314L16.6164 7.90959L12.2149 11.3227Z" fill="black"/>
</g>
</g>
</g>
<path id="Vector_12" d="M135.197 18.2344H101.395C100.046 18.2344 98.9531 19.3276 98.9531 20.6761V31.2059C98.9531 32.5544 100.046 33.6476 101.395 33.6476H135.197C136.546 33.6476 137.639 32.5544 137.639 31.2059V20.6761C137.639 19.3276 136.546 18.2344 135.197 18.2344Z" fill="black"/>
<path id="Vector_13" d="M108.028 21.375H110.152L106.999 26.3852V30.4964H105.2V26.3852L102.047 21.375H104.171L106.1 24.4306L108.028 21.375Z" fill="white"/>
<path id="Vector_14" d="M110.719 30.4964V21.375H112.517V30.4964H110.719Z" fill="white"/>
<path id="Vector_15" d="M113.906 30.4964V21.375H119.678V23.1733H115.704V24.7108H118.806V26.509H115.704V28.6982H119.678V30.4964H113.906Z" fill="white"/>
<path id="Vector_16" d="M120.703 30.4964V21.375H122.501V28.6982H126.176V30.4964H120.703Z" fill="white"/>
<path id="Vector_17" d="M127.266 30.4964V21.375H130.289C130.918 21.375 131.507 21.4944 132.054 21.7333C132.606 21.9679 133.09 22.2959 133.507 22.7172C133.929 23.1342 134.256 23.6184 134.491 24.17C134.73 24.7173 134.849 25.3059 134.849 25.9357C134.849 26.5655 134.73 27.1562 134.491 27.7079C134.256 28.2551 133.929 28.7394 133.507 29.1607C133.09 29.5777 132.606 29.9057 132.054 30.1445C131.507 30.3791 130.918 30.4964 130.289 30.4964H127.266ZM129.064 28.6982H130.289C130.662 28.6982 131.014 28.6264 131.344 28.4831C131.679 28.3398 131.974 28.1422 132.23 27.8903C132.486 27.6384 132.686 27.3451 132.83 27.0107C132.977 26.6762 133.051 26.3179 133.051 25.9357C133.051 25.5535 132.977 25.1973 132.83 24.8672C132.686 24.5328 132.486 24.2395 132.23 23.9876C131.978 23.7313 131.685 23.5315 131.351 23.3882C131.02 23.2449 130.667 23.1733 130.289 23.1733H129.064V28.6982Z" fill="white"/>
</g>
<defs>
<linearGradient id="paint0_linear_13483_12845" x1="2.85938" y1="5.25" x2="40.4768" y2="42.8674" gradientUnits="userSpaceOnUse">
<stop stop-color="#00A3FF"/>
<stop offset="1" stop-color="#0400B4"/>
</linearGradient>
</defs>
</svg>
