<svg width="87" height="28" viewBox="0 0 87 28" fill="none" xmlns="http://www.w3.org/2000/svg">
<g clip-path="url(#clip0_14327_2955)">
<path d="M17.7255 27.3797C17.3293 27.2183 17.2044 26.9213 17.2058 26.5015C17.2159 22.5433 17.1862 18.5844 17.2193 14.6269C17.2469 11.2553 18.7475 8.724 21.7964 7.23495C25.2896 5.52923 29.671 6.89948 31.6643 10.2394C34.3778 14.7869 32.0342 20.5217 26.9102 21.8595C25.8977 22.1241 24.869 22.1707 23.8336 22.0033C23.3584 21.927 23.0762 22.1606 23.0695 22.6479C23.0621 23.1764 23.0573 23.705 23.0715 24.2335C23.0803 24.5777 22.9473 24.8032 22.6368 24.9584C21.0418 25.7603 19.4515 26.571 17.8598 27.379H17.7248L17.7255 27.3797ZM25.0148 16.2476C26.0719 16.2476 26.9548 15.3782 26.9649 14.3292C26.975 13.2614 26.0915 12.3596 25.031 12.3548C23.9477 12.3494 23.06 13.2431 23.0681 14.3312C23.0762 15.3829 23.9558 16.2482 25.0155 16.2482L25.0148 16.2476Z" fill="black"/>
<path d="M0.3288 7.57627C0.477975 7.18612 0.7662 7.05854 1.1739 7.06259C2.59073 7.07609 4.00823 7.06529 5.42505 7.06867C6.0339 7.07002 6.20535 7.24889 6.20603 7.85707C6.20603 9.96037 6.20198 12.0637 6.20873 14.167C6.2121 15.2996 7.0167 16.1771 8.0697 16.2203C9.18953 16.2669 10.1001 15.3894 10.1021 14.25C10.1062 12.1352 10.1028 10.0211 10.1035 7.90634C10.1035 7.23539 10.2682 7.06867 10.9391 7.06732C12.3337 7.06597 13.7282 7.06597 15.1234 7.06732C15.7836 7.06799 15.9395 7.22662 15.9395 7.88407C15.9395 12.1582 15.9395 16.4323 15.9395 20.7057C15.9395 21.3071 15.762 21.4819 15.1538 21.4819C12.8258 21.4826 10.4977 21.49 8.16893 21.4819C4.05075 21.4671 0.712875 18.3722 0.3855 14.281C0.3774 14.1825 0.3477 14.086 0.328125 13.9881C0.328125 11.8504 0.328125 9.71332 0.328125 7.57559L0.3288 7.57627Z" fill="black"/>
<path d="M86.72 21.6331C86.5343 21.9882 86.2461 22.0753 85.8539 22.0442C82.5802 21.7837 79.544 18.9817 79.0371 15.7127C78.9514 15.1599 78.9048 14.5956 78.9028 14.0367C78.892 9.85573 78.9008 5.67478 78.8906 1.49383C78.8893 1.06925 79.0229 0.7817 79.4293 0.640625H84.2218C84.6254 0.7844 84.7618 1.06655 84.7577 1.4945C84.7409 3.43513 84.7503 5.37575 84.7503 7.31638C84.7503 8.40448 84.807 8.47468 85.885 8.45443C86.2576 8.44768 86.5391 8.54083 86.7193 8.87495V13.87C86.5458 14.2108 86.2623 14.3344 85.8904 14.2999C85.7459 14.2864 85.5981 14.2891 85.453 14.2999C84.9839 14.3357 84.7469 14.7549 84.9623 15.1734C85.1985 15.6317 85.5718 15.9294 86.0443 16.1332C86.2866 16.2379 86.4952 16.4215 86.7186 16.57V21.6325L86.72 21.6331Z" fill="black"/>
<path d="M45.803 12.5696C45.803 9.85877 45.809 7.14797 45.7969 4.43717C45.7949 4.02474 45.9339 3.77769 46.3106 3.59072C47.7908 2.85767 49.2563 2.09492 50.7305 1.34904C51.2313 1.09524 51.6404 1.34634 51.6431 1.90659C51.6478 3.17762 51.6444 4.44864 51.6451 5.71967C51.6451 6.48647 51.8226 6.6586 52.5685 6.56072C56.7805 6.00587 60.4856 8.89892 61.2483 12.9199C61.3442 13.4248 61.3853 13.9472 61.3894 14.4623C61.4049 16.5433 61.3968 18.6243 61.3968 20.7047C61.3968 21.3041 61.2119 21.4883 60.6077 21.4883C59.168 21.4883 57.7282 21.4897 56.2884 21.4883C55.7383 21.4883 55.5452 21.2906 55.5446 20.733C55.5439 18.6074 55.55 16.4812 55.5412 14.3556C55.5371 13.3148 54.8304 12.4987 53.8436 12.3583C52.8432 12.2159 51.8611 12.9233 51.6923 13.9202C51.6532 14.1518 51.6464 14.3907 51.6458 14.6256C51.6424 16.6614 51.6437 18.6972 51.6424 20.7337C51.6424 21.3014 51.4601 21.4877 50.9039 21.4883C49.4527 21.4904 48.0021 21.491 46.5509 21.4883C45.994 21.4877 45.8057 21.2973 45.8057 20.7344C45.8043 18.0121 45.805 15.2905 45.805 12.5682H45.8036L45.803 12.5696Z" fill="black"/>
<path d="M69.8468 14.264C69.8468 12.3517 69.8468 10.4401 69.8468 8.52784C69.8481 4.52509 72.6494 1.28914 76.6076 0.718769C76.752 0.697844 76.8992 0.685694 77.0443 0.687719C77.3919 0.692444 77.6295 0.905069 77.6309 1.24797C77.6383 2.83354 77.6376 4.41979 77.6309 6.00537C77.6295 6.31924 77.4318 6.48799 77.1402 6.56629C76.59 6.71479 76.1776 7.04352 75.9123 7.54572C75.6781 7.98919 75.9029 8.39757 76.4024 8.44077C76.6143 8.45899 76.8297 8.44347 77.043 8.45022C77.4102 8.46169 77.6309 8.67094 77.6322 9.04152C77.6376 10.5933 77.6376 12.1458 77.6309 13.6977C77.6295 14.0493 77.4156 14.2572 77.0598 14.2788C76.8472 14.2917 76.6326 14.2795 76.4193 14.2788C75.8961 14.2788 75.6815 14.4888 75.6815 15.0166C75.6801 16.8837 75.6815 18.7507 75.6828 20.6178C75.6828 21.3393 75.5384 21.4845 74.8175 21.4845C73.4115 21.4845 72.0054 21.4845 70.5994 21.4845C70.0385 21.4845 69.8461 21.3009 69.8454 20.7406C69.8427 18.5813 69.8441 16.422 69.8441 14.262H69.8454L69.8468 14.264Z" fill="black"/>
<path d="M33.4709 19.151C33.4709 18.4085 33.4682 17.666 33.4716 16.9242C33.4736 16.4537 33.6836 16.2438 34.1459 16.233C35.4122 16.204 36.1723 15.4446 36.1959 14.1857C36.2769 9.87448 39.7565 6.47383 44.061 6.50015C44.5754 6.50353 44.7752 6.69995 44.7752 7.21565C44.7765 8.65543 44.7765 10.0952 44.7752 11.535C44.7752 12.158 44.6334 12.3058 44.0151 12.3389C42.8183 12.403 42.0623 13.1874 42.0475 14.3794C41.9969 18.4065 38.9236 21.7065 34.908 22.0447C34.6508 22.0663 34.3916 22.09 34.1338 22.0859C33.6937 22.0798 33.475 21.8544 33.4716 21.4116C33.4662 20.6583 33.4703 19.9043 33.4696 19.151H33.4709Z" fill="black"/>
<path d="M62.6722 14.9656C62.6722 13.054 62.6722 11.1424 62.6722 9.23083C62.6722 8.63953 62.8436 8.47077 63.4363 8.47077C64.8868 8.4701 66.3374 8.46942 67.788 8.46875C68.3185 8.46875 68.5055 8.6429 68.5062 9.16737C68.5096 13.0243 68.5109 16.8813 68.5082 20.7382C68.5082 21.3451 68.3293 21.5064 67.7151 21.5064C66.2868 21.5064 64.8592 21.5064 63.4309 21.5064C62.8571 21.5064 62.6722 21.3201 62.6722 20.7342C62.6715 18.8111 62.6722 16.888 62.6722 14.9656Z" fill="black"/>
<circle cx="65.5837" cy="3.9275" r="3.24" fill="black"/>
</g>
<defs>
<clipPath id="clip0_14327_2955">
<rect width="86.4" height="26.73" fill="white" transform="translate(0.328125 0.640625)"/>
</clipPath>
</defs>
</svg>
