<?xml version="1.0" encoding="utf-8"?>
<!-- Generator: Adobe Illustrator 26.0.0, SVG Export Plug-In . SVG Version: 6.00 Build 0)  -->
<svg version="1.1" id="Layer_1" xmlns="http://www.w3.org/2000/svg" xmlns:xlink="http://www.w3.org/1999/xlink" x="0px" y="0px"
	 viewBox="0 0 339.4 295.3" style="enable-background:new 0 0 339.4 295.3;" xml:space="preserve">
<style type="text/css">
	.st0{fill-rule:evenodd;clip-rule:evenodd;fill:#FFFFFF;}
</style>
<path class="st0" d="M197.7,157.1L197.7,157.1c-1.6,0.1-9.6,0.6-27.6,0.6c-14.3,0-24.5-0.4-28.1-0.6l0,0
	c-55.3-2.4-96.6-12.1-96.6-23.6c0-11.5,41.3-21.2,96.6-23.6v37.6c3.6,0.3,14,0.9,28.3,0.9c17.2,0,25.8-0.7,27.3-0.9v-37.6
	c55.2,2.5,96.4,12.1,96.4,23.6S252.9,154.7,197.7,157.1L197.7,157.1L197.7,157.1z M197.7,106.1V72.4h77.1V21H64.9v51.3h77V106
	c-62.6,2.9-109.7,15.3-109.7,30.1s47.1,27.3,109.7,30.1v107.9h55.7V166.3c62.5-2.9,109.5-15.3,109.5-30.1S260.2,108.9,197.7,106.1
	L197.7,106.1L197.7,106.1z M197.7,106.1L197.7,106.1z"/>
</svg>
